<?xml version="1.0" standalone="no"?>
<!DOCTYPE svg PUBLIC "-//W3C//DTD SVG 20010904//EN"
 "http://www.w3.org/TR/2001/REC-SVG-20010904/DTD/svg10.dtd">
<svg version="1.0" xmlns="http://www.w3.org/2000/svg"
 width="2261.000000pt" height="2261.000000pt" viewBox="0 0 2261.000000 2261.000000"
 preserveAspectRatio="xMidYMid meet">

<g transform="translate(0.000000,2261.000000) scale(0.100000,-0.100000)"
fill="#000000" stroke="none">
<path d="M80 11305 l0 -11225 11225 0 11225 0 0 11225 0 11225 -11225 0
-11225 0 0 -11225z m4060 3160 c176 -26 429 -116 418 -148 -3 -6 -29 -84 -58
-172 -29 -88 -54 -161 -55 -163 -2 -2 -25 8 -52 21 -152 77 -339 120 -523 120
-257 1 -431 -88 -513 -260 -29 -62 -32 -76 -32 -168 0 -74 5 -113 19 -152 57
-152 211 -266 531 -393 296 -117 442 -204 580 -344 103 -104 160 -202 197
-341 30 -114 30 -327 -1 -440 -108 -401 -444 -633 -958 -661 -260 -14 -575 47
-786 153 -37 18 -70 40 -73 47 -4 11 89 342 99 352 2 2 50 -20 107 -49 206
-103 368 -142 590 -142 176 0 239 13 357 70 168 82 253 224 253 420 0 271
-135 408 -570 580 -292 115 -440 204 -573 345 -94 99 -152 199 -184 320 -27
99 -24 301 5 404 62 217 215 396 429 505 82 41 193 78 290 95 105 19 382 20
503 1z m1510 -565 l0 -310 280 0 280 0 0 -165 0 -165 -280 0 -281 0 3 -652 c4
-720 3 -706 68 -796 41 -58 98 -84 190 -90 67 -4 176 7 236 24 21 5 22 2 28
-113 4 -65 9 -139 12 -164 5 -43 4 -47 -23 -57 -78 -32 -172 -45 -323 -46
-144 0 -160 2 -234 27 -225 79 -330 228 -366 517 -6 50 -10 342 -10 717 l0
633 -165 0 -165 0 0 165 0 165 165 0 165 0 2 257 3 258 190 51 c105 29 198 53
208 53 16 1 17 -20 17 -309z m5170 0 l0 -310 280 0 280 0 0 -165 0 -165 -280
0 -281 0 3 -657 c3 -741 1 -718 80 -808 55 -62 117 -80 253 -72 55 4 117 11
138 17 22 6 40 10 42 8 1 -2 6 -76 10 -165 l7 -163 -28 -11 c-109 -42 -390
-59 -504 -30 -155 38 -275 131 -340 265 -74 149 -73 138 -79 916 l-6 695 -167
3 -168 2 0 165 0 165 168 2 167 3 3 255 2 255 193 52 c105 28 200 52 210 52
16 1 17 -20 17 -309z m-3225 -289 c44 -12 118 -40 165 -62 156 -77 293 -244
344 -419 49 -168 48 -160 56 -875 6 -500 12 -702 22 -762 l14 -83 -197 0 -196
0 -12 88 c-6 49 -11 100 -11 114 0 13 -3 28 -6 31 -4 4 -42 -27 -85 -67 -90
-84 -210 -152 -335 -188 -68 -20 -101 -23 -239 -22 -147 0 -167 2 -242 27
-200 67 -355 229 -408 427 -36 133 -26 308 25 443 96 253 364 433 755 506 127
24 296 41 408 41 l77 0 0 63 c-1 222 -122 384 -318 426 -76 16 -246 14 -342
-5 -101 -19 -220 -61 -307 -109 -36 -20 -67 -34 -69 -33 -2 2 -25 68 -52 146
l-50 143 42 24 c124 72 296 133 438 154 40 6 84 13 98 15 14 3 97 3 185 1 121
-2 179 -8 240 -24z m2218 23 l37 -7 0 -201 0 -202 -117 4 c-102 4 -127 1 -182
-18 -133 -44 -223 -127 -291 -265 -83 -166 -90 -242 -90 -962 l0 -573 -209 0
-209 0 -6 1048 c-3 576 -8 1066 -12 1090 l-6 42 191 0 191 0 1 -32 c1 -18 4
-103 8 -188 l6 -155 40 75 c56 107 184 234 285 283 41 20 100 43 130 51 58 15
170 20 233 10z m3062 -23 c330 -88 541 -334 627 -733 17 -82 22 -137 22 -268
0 -91 -3 -173 -6 -182 -7 -17 -52 -18 -759 -18 l-752 0 6 -69 c36 -429 336
-664 812 -637 148 9 285 35 401 76 49 17 93 32 98 33 5 1 26 -68 47 -153 21
-85 38 -156 39 -157 2 -7 -181 -68 -263 -88 -161 -38 -268 -49 -467 -49 -163
0 -198 3 -295 26 -399 94 -650 342 -752 743 -21 82 -26 132 -30 280 -6 213 10
341 62 501 62 190 142 323 269 449 134 134 307 224 495 260 110 21 341 14 446
-14z m2158 23 l37 -7 0 -201 0 -201 -138 0 -138 0 -76 -37 c-136 -68 -240
-206 -291 -387 -21 -74 -21 -96 -25 -733 l-3 -658 -214 0 -215 0 0 963 c0 529
-3 1019 -7 1090 l-6 127 191 0 192 0 0 -108 c0 -60 3 -144 7 -186 l6 -77 37
70 c129 245 392 386 643 345z m1252 -9 c107 -17 222 -53 306 -96 48 -24 59
-34 54 -47 -4 -9 -29 -80 -54 -157 -26 -77 -52 -140 -57 -139 -5 0 -49 20 -98
43 -212 103 -461 106 -591 6 -51 -38 -86 -105 -92 -172 -7 -83 10 -137 63
-193 54 -57 130 -99 341 -185 192 -79 295 -139 383 -225 117 -113 169 -231
177 -400 16 -320 -164 -560 -493 -655 -241 -70 -561 -52 -811 45 -43 16 -92
39 -110 49 l-32 20 54 162 c30 89 56 164 59 166 2 2 26 -9 52 -26 139 -85 339
-136 504 -128 171 8 277 61 333 167 27 51 29 61 25 146 -3 81 -7 96 -35 140
-56 86 -140 139 -370 229 -186 74 -281 132 -384 234 -123 123 -169 227 -169
386 0 437 418 716 945 630z m1736 -3517 c1 -810 4 -1519 8 -1576 l6 -102 -171
0 -171 0 -6 68 c-4 37 -7 101 -8 142 0 41 -4 95 -7 119 l-7 45 -42 -66 c-66
-102 -187 -209 -296 -263 -140 -69 -224 -88 -392 -88 -167 0 -252 19 -390 87
-145 72 -275 193 -363 339 -247 409 -220 1067 58 1438 265 354 727 475 1109
292 75 -36 109 -60 166 -117 40 -39 81 -84 93 -101 l21 -30 1 643 0 642 195 0
195 0 1 -1472z m-8159 -20 l3 -1333 638 -3 637 -2 0 -160 0 -160 -830 0 -830
0 0 1495 0 1495 190 0 190 0 2 -1332z m2651 508 c283 -72 449 -254 520 -571
18 -83 20 -139 27 -765 3 -371 9 -682 12 -690 4 -8 9 -43 13 -77 l6 -63 -176
0 c-136 0 -175 3 -175 13 0 24 -29 250 -33 253 -2 2 -44 -36 -93 -85 -75 -73
-107 -96 -185 -135 -136 -67 -227 -88 -379 -89 -147 -1 -216 14 -337 73 -248
122 -372 418 -301 720 5 25 30 86 54 136 139 293 494 452 1073 480 l143 7 -6
71 c-19 211 -80 331 -204 403 -174 103 -505 80 -764 -52 -38 -20 -72 -34 -74
-32 -11 11 -83 241 -78 249 8 12 132 74 207 102 226 85 535 106 750 52z m2381
19 c315 -55 518 -265 599 -620 19 -85 21 -127 24 -827 l4 -738 -195 0 -196 0
0 674 c0 741 -3 782 -60 920 -70 168 -205 265 -392 281 -220 20 -437 -108
-536 -315 -22 -47 -45 -109 -51 -138 -7 -35 -11 -283 -11 -737 l0 -685 -194 0
-195 0 -3 1058 c-2 581 -7 1065 -12 1075 -8 16 4 17 167 17 l175 0 7 -142 c4
-79 10 -161 14 -182 l6 -39 37 60 c54 86 179 201 275 251 175 91 351 119 537
87z"/>
<path d="M7442 12489 c-389 -45 -589 -216 -569 -486 17 -229 195 -353 444
-309 170 30 305 130 380 282 l38 79 3 223 3 222 -113 -1 c-62 -1 -146 -5 -186
-10z"/>
<path d="M12440 13301 c-161 -52 -269 -152 -351 -326 -37 -79 -69 -183 -69
-224 l0 -21 546 0 547 0 -6 78 c-20 260 -171 456 -385 501 -80 17 -218 13
-282 -8z"/>
<path d="M16975 10319 c-93 -10 -172 -39 -256 -95 -87 -58 -157 -143 -214
-259 -151 -309 -132 -755 43 -1013 79 -115 192 -198 328 -238 80 -24 238 -24
319 0 155 46 291 160 363 303 68 137 74 185 70 534 l-4 304 -29 77 c-100 268
-335 415 -620 387z"/>
<path d="M12335 9514 c-269 -36 -444 -135 -518 -291 -30 -64 -32 -74 -32 -183
0 -103 3 -121 26 -170 37 -79 81 -125 157 -162 57 -28 78 -33 161 -36 203 -8
370 77 475 241 68 105 76 149 76 397 l0 220 -122 -1 c-68 -1 -168 -7 -223 -15z"/>
</g>
</svg>
